<svg xmlns="http://www.w3.org/2000/svg" version="1.1" xmlns:xlink="http://www.w3.org/1999/xlink" xmlns:svgjs="http://svgjs.dev/svgjs" width="2000" height="1500" viewBox="0 0 2000 1500"><rect width="2000" height="1500" fill="#60777f"></rect><g transform="matrix(0.75,0,0,0.75,249.090909090909,282.7536437246963)"><svg viewBox="0 0 396 247" data-background-color="#60777f" preserveAspectRatio="xMidYMid meet" height="1247" width="2000" xmlns="http://www.w3.org/2000/svg" xmlns:xlink="http://www.w3.org/1999/xlink"><g id="tight-bounds" transform="matrix(1,0,0,1,0.2400000000000091,-0.09999999999999432)"><svg viewBox="0 0 395.52 247.2" height="247.2" width="395.52"><g><svg></svg></g><g><svg viewBox="0 0 395.52 247.2" height="247.2" width="395.52"><g transform="matrix(1,0,0,1,116.63544313879427,47.215199999999996)"><svg viewBox="0 0 162.24911372241144 152.7696" height="152.7696" width="162.24911372241144"><g><svg viewBox="0 0 244.43135999999998 230.15029320001764" height="152.7696" width="162.24911372241144"><g transform="matrix(1,0,0,1,0,157.68213167813448)"><svg viewBox="0 0 244.43135999999998 72.46816152188318" height="72.46816152188318" width="244.43135999999998"><g><svg viewBox="0 0 244.43135999999998 72.46816152188318" height="72.46816152188318" width="244.43135999999998"><g><svg viewBox="0 0 244.43135999999998 32.40863079872204" height="32.40863079872204" width="244.43135999999998"><g transform="matrix(1,0,0,1,0,0)"><svg width="244.43135999999998" viewBox="1.850000023841858 -36.25 281.67999267578125 37.349998474121094" height="32.40863079872204" data-palette-color="#ffffff"><path d="M13.4-35.85Q18.15-35.85 21.23-33.98 24.3-32.1 26-30.4L26-30.4Q26.2-30.2 26.2-29.95L26.2-29.95Q26.2-29.8 26.08-29.58 25.95-29.35 25.9-29.25L25.9-29.25Q25.65-28.9 25.08-28.03 24.5-27.15 24.15-26.75L24.15-26.75Q24-26.55 23.83-26.33 23.65-26.1 23.53-26 23.4-25.9 23.15-25.9L23.15-25.9Q23.05-25.9 22.68-26.23 22.3-26.55 21.95-26.8L21.95-26.8Q19.95-28.55 18.05-29.8 16.15-31.05 14.4-31.05L14.4-31.05Q13-31.05 12.1-30.43 11.2-29.8 11.2-27.6L11.2-27.6Q11.2-25.45 12.8-24.25 14.4-23.05 17.05-21.95L17.05-21.95Q17.3-21.85 19.98-20.7 22.65-19.55 24.73-16.3 26.8-13.05 26.8-8.55L26.8-8.55Q26.8-3.75 23.2-1.35 19.6 1.05 13.25 1.05L13.25 1.05Q6.05 1.05 4.1-1.73 2.15-4.5 2.05-4.6L2.05-4.6Q1.85-4.85 1.85-5.1L1.85-5.1Q1.85-5.25 2.25-5.75L2.25-5.75Q2.9-6.65 4.15-7.9L4.15-7.9Q4.35-8.1 4.55-8.1L4.55-8.1Q4.8-8.1 5.1-7.73 5.4-7.35 5.6-7.15L5.6-7.15Q8.55-4.2 12.3-4.2L12.3-4.2Q14.2-4.2 15.6-4.93 17-5.65 17-7.65L17-7.65Q17-11.1 11.55-15L11.55-15Q10.65-15.6 9.85-16L9.85-16Q7.75-17.15 6.25-18.25 4.75-19.35 3.6-21.15 2.45-22.95 2.45-25.35L2.45-25.35Q2.45-28.35 4.33-30.75 6.2-33.15 8.83-34.5 11.45-35.85 13.4-35.85L13.4-35.85ZM46.55-35.05Q50-34.85 52.27-32.25 54.55-29.65 54.55-24.45L54.55-24.45Q54.55-21.05 53.1-19.05 51.65-17.05 49.75-16.28 47.85-15.5 46.4-15.5L46.4-15.5Q45.05-15.5 41.85-15.2L41.85-15.2Q40-15 38.85-14.95L38.85-14.95Q38.75-10.35 38.75-8.7L38.75-8.7Q38.75-2.2 38.9-1.65L38.9-1.65Q39-1.15 38.72-0.78 38.45-0.4 38.02-0.28 37.6-0.15 37.25-0.3L37.25-0.3Q37.1-0.35 36.4-0.35L36.4-0.35Q34.9-0.35 33.2-0.15L33.2-0.15Q32.4-0.05 32.15-0.48 31.9-0.9 31.9-1.8L31.9-1.8Q31.9-2.9 31.95-3.8L31.95-3.8 32-8 32.1-13.9Q32.4-24.5 32.4-30.45L32.4-30.45Q32.4-32.25 32.35-32.6L32.35-32.6Q32.25-33.7 32.25-33.9L32.25-33.9Q32.25-35.2 32.8-35.2L32.8-35.2Q33.05-35.2 33.82-35.15 34.6-35.1 36-35.1L36-35.1Q36.4-35.1 38.05-35.15 39.7-35.2 41.5-35.2L41.5-35.2Q44.15-35.2 46.55-35.05L46.55-35.05ZM45-19.1Q46.85-19.1 48.45-20.2 50.05-21.3 50.05-24.15L50.05-24.15Q50.05-27.2 48.8-28.78 47.55-30.35 45.15-30.8L45.15-30.8Q41.4-31.55 39.25-31.4L39.25-31.4Q39.25-30 39.2-29.3L39.2-29.3Q39.1-26.5 38.95-25.3L38.95-25.3Q38.75-23.55 38.85-21.35L38.85-21.35 38.95-19.4 41.3-19.25Q42.65-19.1 45-19.1L45-19.1ZM68.45-35.7Q73.45-35.7 75.95-32.83 78.45-29.95 79.15-26.03 79.84-22.1 79.84-17.15L79.84-17.15Q79.84-13.15 78.65-8.93 77.45-4.7 74.95-1.8 72.45 1.1 68.8 1.1L68.8 1.1Q61.65 1.1 59.3-4.93 56.95-10.95 56.95-17.85L56.95-17.85Q56.95-24.5 58.77-28.5 60.59-32.5 63.22-34.1 65.84-35.7 68.45-35.7L68.45-35.7ZM68.4-11.6Q69.75-11.6 70.4-13.1 71.05-14.6 71.05-16.7L71.05-16.7Q71.05-18.7 70.42-20.2 69.8-21.7 68.75-21.7L68.75-21.7Q67.5-21.7 66.87-19.98 66.25-18.25 66.25-16.25L66.25-16.25Q66.25-14.2 66.65-12.9 67.05-11.6 68.4-11.6L68.4-11.6ZM107.49-1.4Q108.19-0.3 108.19 0.05L108.19 0.05Q108.19 0.25 107.94 0.3 107.69 0.35 107.52 0.35 107.34 0.35 107.24 0.35L107.24 0.35 101.59 0.5Q101.19 0.5 100.97 0.15 100.74-0.2 100.34-1.1L100.34-1.1Q100.09-1.85 99.44-3.1L99.44-3.1Q98.44-4.9 95.99-9.85L95.99-9.85 93.44-14.8 93.59-12.15 93.84-8.35Q94.14-1.65 94.34-0.95L94.34-0.95Q94.39-0.75 94.39-0.45L94.39-0.45Q94.39 0.45 93.44 0.45L93.44 0.45Q93.14 0.45 92.94 0.4L92.94 0.4Q92.14 0.3 89.04 0.6L89.04 0.6Q86.94 0.8 86.49 0.8L86.49 0.8Q85.84 0.8 85.62 0.55 85.39 0.3 85.39-0.3L85.39-0.3 85.44-1.45 85.34-4.35Q85.04-9.55 85.04-13.4L85.04-13.4Q85.04-15.4 85.19-16.15L85.19-16.15Q85.44-17.4 85.44-23.2L85.44-23.2Q85.44-29.25 85.24-32.35L85.24-32.35Q85.19-32.75 85.19-33.45L85.19-33.45Q85.19-34.25 85.34-34.6 85.49-34.95 85.67-34.98 85.84-35 86.29-35L86.29-35 87.39-35.1Q90.84-35.5 92.89-35.5L92.89-35.5Q98.49-35.5 101.32-32.63 104.14-29.75 104.14-25.15L104.14-25.15Q104.14-21.5 101.79-18.15L101.79-18.15Q100.79-16.7 99.49-15.55L99.49-15.55 102.99-9.2Q106.84-2.3 107.49-1.4L107.49-1.4ZM93.14-21.45Q93.89-21.45 94.49-21.75L94.49-21.75Q95.89-22.4 95.89-24.4L95.89-24.4Q95.89-25.85 95.44-26.55 94.99-27.25 94.29-27.25L94.29-27.25Q93.74-27.25 93.34-26.85L93.34-26.85Q93.29-26.8 93.34-26.15 93.39-25.5 93.39-24.85L93.39-24.85Q93.39-24.3 93.34-24.05L93.34-24.05Q93.14-23.2 93.14-22.3L93.14-22.3 93.09-21.85 93.14-21.45ZM135.49-33.9Q135.49-33.65 135.42-32.6 135.34-31.55 135.34-30L135.34-30Q135.34-28.6 135.49-26.2L135.49-26.2Q135.49-24.85 133.74-24.85L133.74-24.85 124.94-24.85 124.84-19.7Q124.79-18.85 124.79-15.45L124.79-15.45Q124.79-11.95 124.84-8.65 124.89-5.35 124.89-2.95L124.89-2.95 124.94-0.9 124.94-0.65Q124.94-0.2 124.81-0.1 124.69 0 124.49 0 124.29 0 124.19 0L124.19 0 120.79 0Q120.19 0 120.09-0.2 119.99-0.4 119.99-0.93 119.99-1.45 119.99-1.7L119.99-1.7 120.19-7.9Q120.49-16 120.49-18.3L120.49-18.3Q120.49-19.6 120.39-22.2L120.39-22.2 120.34-24.85Q116.74-24.85 113.04-24.75L113.04-24.75 111.49-24.7Q110.84-24.7 110.59-25.05 110.34-25.4 110.49-25.85L110.49-25.85 110.54-27.1Q110.64-30 110.64-32.45L110.64-32.45Q110.64-33.65 110.59-33.9L110.59-33.9 110.59-34.25Q110.59-34.8 110.81-34.9 111.04-35 111.49-35L111.49-35 116.44-35 119.24-35.05Q121.84-35.15 122.89-35.15L122.89-35.15 125.89-35.1Q129.49-35 131.54-35L131.54-35Q133.04-35 133.49-35.05L133.49-35.05Q134.59-35.1 135.04-34.73 135.49-34.35 135.49-33.9L135.49-33.9ZM149.84-35.85Q154.59-35.85 157.66-33.98 160.74-32.1 162.44-30.4L162.44-30.4Q162.64-30.2 162.64-29.95L162.64-29.95Q162.64-29.8 162.51-29.58 162.39-29.35 162.34-29.25L162.34-29.25Q162.09-28.9 161.51-28.03 160.94-27.15 160.59-26.75L160.59-26.75Q160.44-26.55 160.26-26.33 160.09-26.1 159.96-26 159.84-25.9 159.59-25.9L159.59-25.9Q159.49-25.9 159.11-26.23 158.74-26.55 158.39-26.8L158.39-26.8Q156.39-28.55 154.49-29.8 152.59-31.05 150.84-31.05L150.84-31.05Q149.44-31.05 148.54-30.43 147.64-29.8 147.64-27.6L147.64-27.6Q147.64-25.45 149.24-24.25 150.84-23.05 153.49-21.95L153.49-21.95Q153.74-21.85 156.41-20.7 159.09-19.55 161.16-16.3 163.24-13.05 163.24-8.55L163.24-8.55Q163.24-3.75 159.64-1.35 156.04 1.05 149.69 1.05L149.69 1.05Q142.49 1.05 140.54-1.73 138.59-4.5 138.49-4.6L138.49-4.6Q138.29-4.85 138.29-5.1L138.29-5.1Q138.29-5.25 138.69-5.75L138.69-5.75Q139.34-6.65 140.59-7.9L140.59-7.9Q140.79-8.1 140.99-8.1L140.99-8.1Q141.24-8.1 141.54-7.73 141.84-7.35 142.04-7.15L142.04-7.15Q144.99-4.2 148.74-4.2L148.74-4.2Q150.64-4.2 152.04-4.93 153.44-5.65 153.44-7.65L153.44-7.65Q153.44-11.1 147.99-15L147.99-15Q147.09-15.6 146.29-16L146.29-16Q144.19-17.15 142.69-18.25 141.19-19.35 140.04-21.15 138.89-22.95 138.89-25.35L138.89-25.35Q138.89-28.35 140.76-30.75 142.64-33.15 145.26-34.5 147.89-35.85 149.84-35.85L149.84-35.85ZM186.74-15.85Q187.09-15.85 187.16-15.68 187.24-15.5 187.21-15.3 187.19-15.1 187.19-15L187.19-15 187.19-12.4Q187.19-12 186.64-12L186.64-12 185.89-12.05Q185.54-12.05 184.41-11.98 183.29-11.9 182.49-11.9L182.49-11.9 178.19-11.8Q175.89-11.8 175.09-11.78 174.29-11.75 173.99-11.75L173.99-11.75Q173.54-11.65 172.34-11.65L172.34-11.65Q171.29-11.65 170.51-11.7 169.74-11.75 169.34-11.75L169.34-11.75Q168.69-11.75 168.54-11.85 168.39-11.95 168.41-12.18 168.44-12.4 168.44-12.55L168.44-12.55 168.34-13.65Q168.14-15.25 168.24-15.5L168.24-15.5Q168.24-15.8 168.79-15.8L168.79-15.8Q168.94-15.8 169.54-15.7L169.54-15.7 173.14-15.7Q174.14-15.7 174.84-15.75L174.84-15.75Q176.34-15.85 179.74-15.85L179.74-15.85 186.74-15.85ZM197.28-36.15L201.53-36.2Q202.63-36.2 203.16-35.98 203.68-35.75 203.98-35.2L203.98-35.2Q204.48-34.15 205.23-32.5L205.23-32.5 207.08-28.5 209.43-23.35Q210.08-21.95 211.13-19.65 212.18-17.35 212.63-16.45L212.63-16.45Q213.48-14.7 213.73-14.3L213.73-14.3 215.13-11.55 216.68-8.5 216.58-11.4 216.38-16.3 216.38-17.8Q216.38-20.55 216.48-23.35L216.48-23.35Q216.48-25.45 216.43-26.75L216.43-26.75 216.38-30.55 216.58-35.35Q216.58-36.1 217.33-36.1L217.33-36.1Q217.58-36.1 218.33-35.95L218.33-35.95Q218.78-35.85 219.28-35.85 219.78-35.85 220.08-35.85L220.08-35.85Q220.48-35.85 220.61-35.75 220.73-35.65 220.73-35.4L220.73-35.4Q220.73-35.2 220.68-34.95 220.63-34.7 220.63-34.4L220.63-34.4 220.58-30.1 220.48-20 220.43-18.55Q220.43-16.85 220.48-15.45 220.53-14.05 220.58-13.15L220.58-13.15Q220.73-11 220.73-9.55L220.73-9.55Q220.73-9.75 220.88-3.6L220.88-3.6 220.98-0.8 220.98-0.7Q220.98 0.3 220.03 0.2L220.03 0.2Q219.88 0.15 219.43 0.15L219.43 0.15 217.98 0.2 217.68 0.2Q217.33 0.2 217.16 0.05 216.98-0.1 216.58-0.8L216.58-0.8Q216.43-1.15 216.18-1.8 215.93-2.45 215.58-3.25L215.58-3.25Q213.43-8.65 212.48-10.6L212.48-10.6Q211.38-12.7 206.93-22.65L206.93-22.65Q205.93-24.7 204.68-27L204.68-27 203.23-29.6 203.38-24.85 203.43-21.9Q203.53-18.6 203.53-17.55L203.53-17.55Q203.53-13.45 203.68-9.3L203.68-9.3 203.73-5.4Q203.73-4.35 203.83-2.35L203.83-2.35 203.93-0.6 203.93-0.5Q203.93 0 203.68 0.15 203.43 0.3 202.98 0.3L202.98 0.3 201.88 0.35Q200.83 0.5 199.63 0.5L199.63 0.5Q198.23 0.5 197.33 0.55L197.33 0.55 194.78 0.6Q194.03 0.6 193.78 0.33 193.53 0.05 193.48-0.3 193.43-0.65 193.38-0.8L193.38-0.8Q193.18-1.7 193.18-3L193.18-3Q193.18-4.2 193.23-5.05L193.23-5.05Q193.23-7.65 193.33-11.13 193.43-14.6 193.58-16.1L193.58-16.1 193.83-19.65Q194.43-27.95 194.43-29L194.43-29Q194.43-32.95 194.58-34.9L194.58-34.9Q194.68-36.25 195.98-36.25L195.98-36.25Q196.38-36.25 196.73-36.2 197.08-36.15 197.28-36.15L197.28-36.15ZM237.68-35.7Q242.68-35.7 245.18-32.83 247.68-29.95 248.38-26.03 249.08-22.1 249.08-17.15L249.08-17.15Q249.08-13.15 247.88-8.93 246.68-4.7 244.18-1.8 241.68 1.1 238.03 1.1L238.03 1.1Q230.88 1.1 228.53-4.93 226.18-10.95 226.18-17.85L226.18-17.85Q226.18-24.5 228.01-28.5 229.83-32.5 232.46-34.1 235.08-35.7 237.68-35.7L237.68-35.7ZM237.63-11.6Q238.98-11.6 239.63-13.1 240.28-14.6 240.28-16.7L240.28-16.7Q240.28-18.7 239.66-20.2 239.03-21.7 237.98-21.7L237.98-21.7Q236.73-21.7 236.11-19.98 235.48-18.25 235.48-16.25L235.48-16.25Q235.48-14.2 235.88-12.9 236.28-11.6 237.63-11.6L237.63-11.6ZM263.03-16.55L263.23-17.2 263.73-18.6Q264.08-19.45 264.93-22.7L264.93-22.7 265.28-24Q265.48-24.75 266.18-26.85 266.88-28.95 267.28-30.1L267.28-30.1Q267.53-30.65 267.88-31.75L267.88-31.75Q269.18-35.05 269.78-35.05L269.78-35.05Q270.13-35.05 270.23-34.95 270.33-34.85 270.38-34.6 270.43-34.35 270.48-34.2L270.48-34.2Q270.58-33.8 270.73-33.27 270.88-32.75 270.98-32.1L270.98-32.1Q272.98-26.9 273.38-25.9L273.38-25.9 274.93-22.55 275.83-20.55Q275.93-20.85 276.03-21L276.03-21 276.53-22.25Q276.63-22.55 276.93-24.3L276.93-24.3Q277.28-26.5 277.53-27.45L277.53-27.45Q277.78-28.4 278.43-30.2L278.43-30.2Q279.18-32.4 279.28-33.15L279.28-33.15Q279.48-34.9 280.48-34.9L280.48-34.9Q281.28-35.1 282.28-35.1L282.28-35.1Q282.78-35.1 282.93-35.05L282.93-35.05Q283.53-35.05 283.53-34.6L283.53-34.6 283.43-34 282.98-32.6Q282.63-31.25 282.38-30.55L282.38-30.55Q282.13-29.65 281.78-28.4 281.43-27.15 281.08-25.85L281.08-25.85Q280.33-22.9 279.78-21.05L279.78-21.05Q279.48-19.85 279.13-17.53 278.78-15.2 278.78-14.8L278.78-14.8Q278.78-13.6 278.08-11.9L278.08-11.9Q277.83-11.15 277.33-8.6 276.83-6.05 276.68-5.15L276.68-5.15Q276.18-1.85 275.98-1.5L275.98-1.5Q275.93-1.2 275.85-0.78 275.78-0.35 275.7-0.15 275.63 0.05 275.48 0.05L275.48 0.05Q275.08 0.05 274.9-0.15 274.73-0.35 274.43-1L274.43-1Q274.03-1.5 272.38-5.85L272.38-5.85Q272.03-6.75 270.28-11.7L270.28-11.7Q269.98-12.75 269.28-14.55L269.28-14.55 268.58-16.4 267.88-15Q267.38-13.9 266.38-11.3L266.38-11.3 265.98-10.3Q265.38-8.55 264.08-3.15L264.08-3.15 263.73-1.7Q263.58-1.1 263.25-0.53 262.93 0.05 262.68 0.05L262.68 0.05Q262.33 0.05 262.15-0.2 261.98-0.45 261.83-1L261.83-1Q261.63-1.4 261.13-3.85L261.13-3.85Q260.93-4.65 260.53-6.28 260.13-7.9 259.93-8.4L259.93-8.4Q259.48-9.5 258.88-11.63 258.28-13.75 258.18-14.15L258.18-14.15Q257.78-15.1 255.88-22.2L255.88-22.2Q255.58-23.15 255.33-24.08 255.08-25 254.88-25.7L254.88-25.7 253.93-29.25 252.83-33.3Q252.63-33.95 252.63-34.3L252.63-34.3Q252.63-34.45 252.73-34.5 252.83-34.55 252.98-34.55L252.98-34.55 254.53-34.55Q255.38-34.55 255.73-34.6L255.73-34.6 256.28-34.7Q256.78-34.85 256.95-34.55 257.13-34.25 257.33-33.3L257.33-33.3Q257.43-32.9 258.33-29.78 259.23-26.65 260.43-23.65L260.43-23.65Q261.38-20.7 262.18-18.75L262.18-18.75 263.03-16.55Z" opacity="1" transform="matrix(1,0,0,1,0,0)" fill="#ffffff" class="undefined-text-0" data-fill-palette-color="primary" id="text-0"></path></svg></g></svg></g><g transform="matrix(1,0,0,1,2.6851171395766897,40.05953072316114)"><svg viewBox="0 0 239.0611257208466 32.40863079872204" height="32.40863079872204" width="239.0611257208466"><g transform="matrix(1,0,0,1,0,0)"><svg width="239.0611257208466" viewBox="2.049999952316284 -37.9900016784668 368.7900085449219 50" height="32.40863079872204" data-palette-color="#ffffff"><path d="M20.9-6.91L20.9-6.91Q20.9-3.34 18.19-1.43 15.48 0.49 10.5 0.49L10.5 0.49Q5.18 0.49 2.05-1.15L2.05-1.15 2.05-3.76Q6.05-1.76 10.5-1.76L10.5-1.76Q14.43-1.76 16.47-3.06 18.51-4.37 18.51-6.54L18.51-6.54Q18.51-8.54 16.88-9.91 15.26-11.28 11.55-12.6L11.55-12.6Q7.57-14.04 5.96-15.08 4.35-16.11 3.53-17.42 2.71-18.73 2.71-20.61L2.71-20.61Q2.71-23.58 5.21-25.32 7.71-27.05 12.21-27.05L12.21-27.05Q16.5-27.05 20.36-25.44L20.36-25.44 19.46-23.24Q15.55-24.85 12.21-24.85L12.21-24.85Q8.96-24.85 7.06-23.78 5.15-22.71 5.15-20.8L5.15-20.8Q5.15-18.73 6.63-17.48 8.11-16.24 12.4-14.7L12.4-14.7Q15.99-13.4 17.63-12.37 19.26-11.33 20.08-10.01 20.9-8.69 20.9-6.91ZM39.08 0.49L39.08 0.49Q32.96 0.49 30.15-4.1L30.15-4.1 29.98-4.1 30.05-2.05Q30.15-0.24 30.15 1.9L30.15 1.9 30.15 12.01 27.73 12.01 27.73-26.54 29.78-26.54 30.25-22.75 30.39-22.75Q33.13-27.05 39.13-27.05L39.13-27.05Q44.5-27.05 47.32-23.52 50.14-20 50.14-13.26L50.14-13.26Q50.14-6.71 47.18-3.11 44.21 0.49 39.08 0.49ZM39.04-1.66L39.04-1.66Q43.11-1.66 45.35-4.69 47.58-7.71 47.58-13.16L47.58-13.16Q47.58-24.85 39.13-24.85L39.13-24.85Q34.49-24.85 32.32-22.3 30.15-19.75 30.15-13.99L30.15-13.99 30.15-13.21Q30.15-6.98 32.24-4.32 34.32-1.66 39.04-1.66ZM79.44-13.31L79.44-13.31Q79.44-6.81 76.29-3.16 73.14 0.49 67.6 0.49L67.6 0.49Q64.11 0.49 61.45-1.2 58.78-2.88 57.37-6.03 55.95-9.18 55.95-13.31L55.95-13.31Q55.95-19.8 59.1-23.43 62.25-27.05 67.74-27.05L67.74-27.05Q73.21-27.05 76.33-23.38 79.44-19.7 79.44-13.31ZM58.49-13.31L58.49-13.31Q58.49-7.84 60.9-4.77 63.3-1.71 67.7-1.71L67.7-1.71Q72.09-1.71 74.49-4.77 76.9-7.84 76.9-13.31L76.9-13.31Q76.9-18.8 74.47-21.83 72.04-24.85 67.65-24.85L67.65-24.85Q63.25-24.85 60.87-21.84 58.49-18.82 58.49-13.31ZM97.23-27.05L97.23-27.05Q98.92-27.05 100.85-26.71L100.85-26.71 100.38-24.39Q98.72-24.8 96.94-24.8L96.94-24.8Q93.55-24.8 91.37-21.92 89.2-19.04 89.2-14.65L89.2-14.65 89.2 0 86.78 0 86.78-26.54 88.84-26.54 89.08-21.75 89.25-21.75Q90.89-24.68 92.74-25.87 94.6-27.05 97.23-27.05ZM113.25-1.66L113.25-1.66Q115.54-1.66 117.25-2.05L117.25-2.05 117.25-0.1Q115.49 0.49 113.2 0.49L113.2 0.49Q109.68 0.49 108.01-1.39 106.34-3.27 106.34-7.3L106.34-7.3 106.34-24.44 102.41-24.44 102.41-25.85 106.34-26.95 107.56-32.96 108.8-32.96 108.8-26.54 116.59-26.54 116.59-24.44 108.8-24.44 108.8-7.64Q108.8-4.59 109.88-3.13 110.95-1.66 113.25-1.66ZM139.44-6.91L139.44-6.91Q139.44-3.34 136.73-1.43 134.02 0.49 129.04 0.49L129.04 0.49Q123.72 0.49 120.59-1.15L120.59-1.15 120.59-3.76Q124.6-1.76 129.04-1.76L129.04-1.76Q132.97-1.76 135.01-3.06 137.05-4.37 137.05-6.54L137.05-6.54Q137.05-8.54 135.42-9.91 133.8-11.28 130.09-12.6L130.09-12.6Q126.11-14.04 124.5-15.08 122.89-16.11 122.07-17.42 121.25-18.73 121.25-20.61L121.25-20.61Q121.25-23.58 123.75-25.32 126.26-27.05 130.75-27.05L130.75-27.05Q135.05-27.05 138.9-25.44L138.9-25.44 138-23.24Q134.09-24.85 130.75-24.85L130.75-24.85Q127.5-24.85 125.6-23.78 123.69-22.71 123.69-20.8L123.69-20.8Q123.69-18.73 125.17-17.48 126.65-16.24 130.94-14.7L130.94-14.7Q134.53-13.4 136.17-12.37 137.8-11.33 138.62-10.01 139.44-8.69 139.44-6.91ZM177.16 0L175.37 0 174.76-4.2 174.57-4.2Q172.57-1.64 170.45-0.57 168.34 0.49 165.46 0.49L165.46 0.49Q161.55 0.49 159.38-1.51 157.21-3.52 157.21-7.06L157.21-7.06Q157.21-10.94 160.44-13.09 163.68-15.23 169.81-15.36L169.81-15.36 174.86-15.5 174.86-17.26Q174.86-21.04 173.32-22.97 171.78-24.9 168.37-24.9L168.37-24.9Q164.68-24.9 160.72-22.85L160.72-22.85 159.82-24.95Q164.19-27 168.46-27L168.46-27Q172.83-27 174.99-24.73 177.16-22.46 177.16-17.65L177.16-17.65 177.16 0ZM165.61-1.71L165.61-1.71Q169.86-1.71 172.31-4.14 174.76-6.57 174.76-10.89L174.76-10.89 174.76-13.5 170.12-13.31Q164.53-13.04 162.15-11.56 159.77-10.08 159.77-6.96L159.77-6.96Q159.77-4.47 161.3-3.09 162.82-1.71 165.61-1.71ZM206.65 0L204.25 0 204.25-17.21Q204.25-21.22 202.57-23.03 200.88-24.85 197.34-24.85L197.34-24.85Q192.58-24.85 190.37-22.45 188.16-20.04 188.16-14.65L188.16-14.65 188.16 0 185.75 0 185.75-26.54 187.8-26.54 188.26-22.9 188.41-22.9Q191-27.05 197.61-27.05L197.61-27.05Q206.65-27.05 206.65-17.36L206.65-17.36 206.65 0ZM220.95 0L210.79-26.54 213.28-26.54 218.9-11.65Q221.46-4.79 222.15-2.39L222.15-2.39 222.29-2.39Q223.32-5.54 225.64-11.79L225.64-11.79 231.25-26.54 233.74-26.54 221.85 4.3Q220.41 8.06 219.44 9.38 218.46 10.69 217.15 11.35 215.85 12.01 213.99 12.01L213.99 12.01Q212.6 12.01 210.89 11.5L210.89 11.5 210.89 9.4Q212.31 9.79 213.94 9.79L213.94 9.79Q215.19 9.79 216.14 9.2 217.09 8.62 217.86 7.39 218.63 6.15 219.64 3.48 220.66 0.81 220.95 0L220.95 0ZM261.94 0L259.4 0 253.59-17.75Q253.03-19.56 252.15-23.05L252.15-23.05 252-23.05 251.49-21.24 250.39-17.7 244.48 0 242.09 0 234.5-26.54 237.08-26.54 241.33-11.16Q242.82-5.44 243.29-2.76L243.29-2.76 243.43-2.76Q244.87-8.47 245.53-10.35L245.53-10.35 251-26.54 253.2-26.54 258.4-10.4Q260.16-4.66 260.55-2.81L260.55-2.81 260.69-2.81Q260.89-4.39 262.65-11.3L262.65-11.3 266.7-26.54 269.14-26.54 261.94 0ZM295.24 0L292.84 0 292.84-17.21Q292.84-21.22 291.16-23.03 289.47-24.85 285.93-24.85L285.93-24.85Q281.17-24.85 278.96-22.45 276.75-20.04 276.75-14.65L276.75-14.65 276.75 0 274.34 0 274.34-37.99 276.75-37.99 276.75-25.9 276.63-22.51 276.8-22.51Q278.29-24.9 280.56-25.98 282.83-27.05 286.2-27.05L286.2-27.05Q295.24-27.05 295.24-17.36L295.24-17.36 295.24 0ZM314.55 0.49L314.55 0.49Q308.76 0.49 305.52-3.08 302.29-6.64 302.29-13.06L302.29-13.06Q302.29-19.41 305.41-23.23 308.54-27.05 313.84-27.05L313.84-27.05Q318.52-27.05 321.23-23.78 323.94-20.51 323.94-14.89L323.94-14.89 323.94-12.94 304.83-12.94Q304.88-7.47 307.38-4.59 309.88-1.71 314.55-1.71L314.55-1.71Q316.82-1.71 318.54-2.03 320.26-2.34 322.89-3.39L322.89-3.39 322.89-1.2Q320.65-0.22 318.74 0.13 316.84 0.49 314.55 0.49ZM313.84-24.9L313.84-24.9Q310-24.9 307.68-22.38 305.37-19.85 304.97-15.09L304.97-15.09 321.38-15.09Q321.38-19.7 319.38-22.3 317.38-24.9 313.84-24.9ZM341.72-27.05L341.72-27.05Q343.4-27.05 345.33-26.71L345.33-26.71 344.86-24.39Q343.2-24.8 341.42-24.8L341.42-24.8Q338.03-24.8 335.86-21.92 333.68-19.04 333.68-14.65L333.68-14.65 333.68 0 331.27 0 331.27-26.54 333.32-26.54 333.56-21.75 333.73-21.75Q335.37-24.68 337.22-25.87 339.08-27.05 341.72-27.05ZM361.44 0.49L361.44 0.49Q355.65 0.49 352.42-3.08 349.18-6.64 349.18-13.06L349.18-13.06Q349.18-19.41 352.31-23.23 355.43-27.05 360.73-27.05L360.73-27.05Q365.42-27.05 368.13-23.78 370.84-20.51 370.84-14.89L370.84-14.89 370.84-12.94 351.72-12.94Q351.77-7.47 354.27-4.59 356.78-1.71 361.44-1.71L361.44-1.71Q363.71-1.71 365.43-2.03 367.15-2.34 369.79-3.39L369.79-3.39 369.79-1.2Q367.54-0.22 365.64 0.13 363.73 0.49 361.44 0.49ZM360.73-24.9L360.73-24.9Q356.9-24.9 354.58-22.38 352.26-19.85 351.87-15.09L351.87-15.09 368.28-15.09Q368.28-19.7 366.27-22.3 364.27-24.9 360.73-24.9Z" opacity="1" transform="matrix(1,0,0,1,0,0)" fill="#ffffff" class="undefined-text-1" data-fill-palette-color="secondary" id="text-1"></path></svg></g></svg></g></svg></g></svg></g><g transform="matrix(1,0,0,1,51.02551408537185,0)"><svg viewBox="0 0 142.38033182925628 142.38033182925628" height="142.38033182925628" width="142.38033182925628"><g><svg></svg></g><g id="icon-0"><svg viewBox="0 0 142.38033182925628 142.38033182925628" height="142.38033182925628" width="142.38033182925628"><g><path d="M0 71.19c0-39.317 31.873-71.19 71.19-71.19 39.317 0 71.19 31.873 71.19 71.19 0 39.317-31.873 71.19-71.19 71.19-39.317 0-71.19-31.873-71.19-71.19zM71.19 139.458c37.703 0 68.268-30.564 68.268-68.268 0-37.703-30.564-68.268-68.268-68.267-37.703 0-68.268 30.564-68.267 68.267 0 37.703 30.564 68.268 68.267 68.268z" data-fill-palette-color="accent" fill="#ffffff" stroke="transparent"></path></g><g transform="matrix(1,0,0,1,43.71075932009221,28.258465402852963)"><svg viewBox="0 0 54.95881318907186 85.86340102355035" height="85.86340102355035" width="54.95881318907186"><g><svg xmlns="http://www.w3.org/2000/svg" xmlns:xlink="http://www.w3.org/1999/xlink" version="1.1" x="0" y="0" viewBox="21.6200008392334 5.659999847412109 56.76100158691406 88.67900085449219" enable-background="new 0 0 100 100" xml:space="preserve" height="85.86340102355035" width="54.95881318907186" class="icon-a-0" data-fill-palette-color="accent" id="a-0"><g fill="#ffffff" data-fill-palette-color="accent"><g fill="#ffffff" data-fill-palette-color="accent"><g fill="#ffffff" data-fill-palette-color="accent"><g fill="#ffffff" data-fill-palette-color="accent"><g fill="#ffffff" data-fill-palette-color="accent"><g fill="#ffffff" data-fill-palette-color="accent"><g fill="#ffffff" data-fill-palette-color="accent"><g fill="#ffffff" data-fill-palette-color="accent"><g fill="#ffffff" data-fill-palette-color="accent"><g fill="#ffffff" data-fill-palette-color="accent"><g fill="#ffffff" data-fill-palette-color="accent"><g fill="#ffffff" data-fill-palette-color="accent"><g fill="#ffffff" data-fill-palette-color="accent"><g fill="#ffffff" data-fill-palette-color="accent"><g fill="#ffffff" data-fill-palette-color="accent"><g fill="#ffffff" data-fill-palette-color="accent"><g fill="#ffffff" data-fill-palette-color="accent"><g fill="#ffffff" data-fill-palette-color="accent"><g fill="#ffffff" data-fill-palette-color="accent"><g fill="#ffffff" data-fill-palette-color="accent"><g fill="#ffffff" data-fill-palette-color="accent"><path fill="none" d="M44.612 12.766c0.004 0 0.008 0 0.014 0 0.004 0 0.008 0 0.012 0H44.612z"></path><path d="M57.321 6.63c-2.34-0.63-4.801-0.97-7.33-0.97-2.221 0-4.381 0.26-6.461 0.76C31.01 9.35 21.62 20.63 21.62 34.029c0 6.891 3.3 15.341 6 20.44 3.72 6.819 15.65 27.94 19.18 34.22l3.211 5.65 3.09-5.58c0.131-0.141 14.539-25.84 19.35-34.21 2.871-5.03 5.93-13.92 5.93-20.521C78.38 20.939 69.411 9.87 57.321 6.63zM66.231 50.99c-0.83 1.47-1.951 3.439-3.23 5.7-0.051 0.1-0.111 0.199-0.17 0.31-3.961 7-9.391 16.629-12.84 22.82-3.561-6.23-9.02-15.971-12.82-22.82-0.061-0.1-0.119-0.2-0.17-0.3-1.279-2.311-2.359-4.271-3.101-5.63-2.561-4.73-5.19-11.86-5.19-17.041 0-9.25 6.012-17.17 14.311-20.069 2.189-0.771 4.541-1.19 6.98-1.19 2.66 0 5.25 0.5 7.67 1.451 2.699 1.049 5.189 2.67 7.311 4.789 3.988 4.061 6.209 9.301 6.209 15.02C71.19 39.15 68.571 46.85 66.231 50.99z" fill="#ffffff" data-fill-palette-color="accent"></path></g></g></g></g></g></g></g></g></g><path d="M37.171 57h-0.17v-0.3C37.052 56.8 37.11 56.9 37.171 57z" fill="#ffffff" data-fill-palette-color="accent"></path><path d="M63.001 56.69V57h-0.17C62.89 56.89 62.95 56.79 63.001 56.69z" fill="#ffffff" data-fill-palette-color="accent"></path></g></g></g></g></g></g></g></g></g></g></g><g fill="#ffffff" data-fill-palette-color="accent"><path d="M35.705 25.588c-0.237 0.347-0.465 0.701-0.68 1.07-0.184 0.319-0.353 0.642-0.515 0.966 0.162-0.325 0.334-0.647 0.518-0.964C35.242 26.291 35.469 25.935 35.705 25.588z" fill="#ffffff" data-fill-palette-color="accent"></path><path d="M58.675 20.36c-0.576-0.334-1.163-0.627-1.76-0.888 0.596 0.261 1.183 0.557 1.758 0.891 1.944 1.125 3.582 2.576 4.895 4.241 0.264 0.333 0.517 0.674 0.754 1.022 2.646 3.919 3.608 8.819 2.563 13.493-0.074 0.326-0.157 0.651-0.251 0.975C68.771 32.647 65.685 24.422 58.675 20.36z" fill="#ffffff" data-fill-palette-color="accent"></path><path d="M66.281 41.18c-0.109 0.306-0.228 0.611-0.354 0.913C66.056 41.792 66.172 41.486 66.281 41.18z" fill="#ffffff" data-fill-palette-color="accent"></path><path d="M66.604 40.187c-0.08 0.278-0.168 0.553-0.264 0.826C66.437 40.739 66.523 40.464 66.604 40.187z" fill="#ffffff" data-fill-palette-color="accent"></path><path d="M64.302 45.068c0.233-0.344 0.461-0.693 0.672-1.058 0.361-0.623 0.674-1.26 0.948-1.905-0.274 0.645-0.591 1.281-0.951 1.903C64.759 44.374 64.535 44.725 64.302 45.068z" fill="#ffffff" data-fill-palette-color="accent"></path><path d="M63.504 46.143c-0.175 0.22-0.354 0.435-0.538 0.644C63.15 46.578 63.329 46.363 63.504 46.143z" fill="#ffffff" data-fill-palette-color="accent"></path><path d="M64.256 45.135c-0.192 0.282-0.395 0.554-0.601 0.82C63.861 45.689 64.063 45.417 64.256 45.135z" fill="#ffffff" data-fill-palette-color="accent"></path><path d="M56.681 51.284c-4.375 1.827-9.449 1.847-13.981-0.268-0.426-0.197-0.847-0.413-1.261-0.649-0.037-0.021-0.076-0.04-0.113-0.063-0.194-0.112-0.385-0.229-0.574-0.348 0.189 0.119 0.377 0.239 0.571 0.351 7.208 4.175 16.17 2.565 21.527-3.392-1.447 1.606-3.159 2.896-5.03 3.841C57.445 50.946 57.067 51.123 56.681 51.284z" fill="#ffffff" data-fill-palette-color="accent"></path><path d="M33.7 41.102c-1.042-2.949-1.285-6.167-0.637-9.295 0.075-0.359 0.158-0.718 0.256-1.074-1.558 5.631-0.138 11.681 3.691 16.031-1.209-1.376-2.178-2.922-2.888-4.571C33.967 41.834 33.829 41.47 33.7 41.102z" fill="#ffffff" data-fill-palette-color="accent"></path><path d="M39.473 49.065c-0.274-0.208-0.536-0.426-0.794-0.649C38.937 48.639 39.199 48.857 39.473 49.065z" fill="#ffffff" data-fill-palette-color="accent"></path><path d="M38.537 48.292c-0.529-0.467-1.025-0.962-1.486-1.483C37.512 47.329 38.007 47.824 38.537 48.292z" fill="#ffffff" data-fill-palette-color="accent"></path><path d="M33.677 29.599c0.106-0.3 0.218-0.599 0.341-0.895C33.895 29.001 33.784 29.299 33.677 29.599z" fill="#ffffff" data-fill-palette-color="accent"></path><path d="M33.333 30.683c0.08-0.288 0.171-0.572 0.267-0.856C33.504 30.111 33.415 30.396 33.333 30.683z" fill="#ffffff" data-fill-palette-color="accent"></path><path d="M39.867 21.318c0.551-0.397 1.123-0.761 1.711-1.088C40.989 20.558 40.417 20.92 39.867 21.318z" fill="#ffffff" data-fill-palette-color="accent"></path><path d="M50.615 18.049c-0.686-0.024-1.372-0.004-2.053 0.054 0.479-0.041 0.958-0.063 1.441-0.063C50.207 18.04 50.41 18.043 50.615 18.049z" fill="#ffffff" data-fill-palette-color="accent"></path><path d="M37.391 23.483c0.288-0.306 0.585-0.601 0.892-0.882C37.977 22.882 37.679 23.177 37.391 23.483z" fill="#ffffff" data-fill-palette-color="accent"></path><path d="M52.487 18.216c0.165 0.024 0.329 0.052 0.496 0.08C52.816 18.268 52.652 18.24 52.487 18.216z" fill="#ffffff" data-fill-palette-color="accent"></path><path d="M51.388 18.089c0.178 0.014 0.354 0.038 0.531 0.057C51.742 18.125 51.565 18.103 51.388 18.089z" fill="#ffffff" data-fill-palette-color="accent"></path><path d="M48.523 18.105c-2.388 0.207-4.713 0.907-6.821 2.057C43.81 19.014 46.137 18.313 48.523 18.105z" fill="#ffffff" data-fill-palette-color="accent"></path><path d="M53.625 18.421c0.14 0.03 0.278 0.059 0.419 0.092C53.903 18.479 53.765 18.451 53.625 18.421z" fill="#ffffff" data-fill-palette-color="accent"></path><path d="M39.568 21.54c-0.196 0.147-0.39 0.298-0.58 0.455 0.066-0.055 0.131-0.109 0.198-0.164C39.312 21.732 39.44 21.636 39.568 21.54z" fill="#ffffff" data-fill-palette-color="accent"></path><path d="M48.343 21.932c-1.819 2.538-3.816 5.327-6.914 7.508 0.267 0.673 0.556 1.356 0.863 2.048 0.199 0.449 0.408 0.899 0.623 1.351 6.059-4.366 13.425-7.909 20.652-8.235-1.313-1.666-2.95-3.116-4.895-4.241-0.575-0.333-1.162-0.63-1.758-0.891-0.003-0.001-0.006-0.002-0.01-0.004-0.293-0.127-0.587-0.246-0.883-0.356-0.01-0.004-0.02-0.008-0.03-0.011-0.295-0.11-0.594-0.21-0.893-0.302 0 0-0.001-0.001-0.002-0.001-0.35-0.108-0.701-0.201-1.054-0.286-0.141-0.033-0.279-0.062-0.419-0.092-0.215-0.044-0.428-0.088-0.642-0.125-0.167-0.028-0.331-0.056-0.496-0.08-0.189-0.027-0.379-0.049-0.568-0.07-0.177-0.019-0.354-0.043-0.531-0.057-0.002 0-0.003-0.001-0.005-0.001C50.322 19.175 49.36 20.513 48.343 21.932z" fill="#ffffff" data-fill-palette-color="accent"></path><path d="M56.681 51.284c-0.654-0.413-1.295-0.855-1.919-1.329-3.886-2.951-7.225-7.026-9.88-11.323-2.704 2.107-3.285 5.271-2.987 8.378 0.132 1.377 0.435 2.742 0.805 4.006C47.232 53.131 52.306 53.111 56.681 51.284z" fill="#ffffff" data-fill-palette-color="accent"></path><path d="M43.485 33.718c-0.035 0.023-0.07 0.051-0.104 0.074 0.56 1.118 1.17 2.241 1.825 3.353 5.125-3 14.742-0.129 21.677 1.976 1.046-4.674 0.083-9.574-2.563-13.493C57.086 25.73 49.61 29.297 43.485 33.718z" fill="#ffffff" data-fill-palette-color="accent"></path><path d="M45.747 38.042c2.596 4.215 5.858 8.205 9.648 11.082 0.786 0.597 1.596 1.143 2.425 1.634 1.871-0.944 3.583-2.235 5.03-3.841 0.038-0.043 0.077-0.086 0.115-0.13 0.185-0.209 0.363-0.424 0.538-0.644 0.05-0.063 0.102-0.125 0.151-0.188 0.206-0.267 0.408-0.539 0.601-0.82 0.017-0.022 0.031-0.044 0.046-0.067 0.233-0.343 0.457-0.695 0.669-1.06 0.36-0.622 0.677-1.259 0.951-1.903 0.003-0.004 0.003-0.008 0.005-0.012 0.127-0.302 0.245-0.607 0.354-0.913 0.021-0.054 0.039-0.113 0.06-0.167 0.096-0.273 0.184-0.548 0.264-0.826 0.007-0.018 0.013-0.036 0.018-0.054C59.872 38.083 50.486 35.271 45.747 38.042z" fill="#ffffff" data-fill-palette-color="accent"></path><path d="M33.7 41.102c2.205-2.493 5.07-5.172 8.356-7.632-0.25-0.521-0.491-1.04-0.72-1.554-0.282-0.634-0.548-1.263-0.796-1.885-3.229 2.026-5.639 2.288-7.476 1.775C32.415 34.935 32.658 38.153 33.7 41.102z" fill="#ffffff" data-fill-palette-color="accent"></path><path d="M40.152 29.037c-0.877-2.333-1.502-4.531-1.858-6.447-0.003 0.003-0.007 0.007-0.011 0.011-0.307 0.281-0.604 0.577-0.892 0.882-0.008 0.008-0.016 0.016-0.023 0.025-0.57 0.609-1.1 1.266-1.587 1.97-0.026 0.037-0.05 0.073-0.076 0.11-0.236 0.347-0.463 0.703-0.677 1.072-0.184 0.317-0.356 0.639-0.518 0.964-0.014 0.027-0.026 0.055-0.04 0.082-0.147 0.298-0.284 0.6-0.413 0.903-0.013 0.032-0.026 0.063-0.039 0.095-0.124 0.296-0.235 0.595-0.341 0.895-0.026 0.076-0.052 0.152-0.077 0.227-0.096 0.285-0.187 0.569-0.267 0.856-0.003 0.013-0.009 0.027-0.013 0.041C34.982 31.19 37.178 30.942 40.152 29.037z" fill="#ffffff" data-fill-palette-color="accent"></path><path d="M41.04 28.433c2.841-2.063 4.733-4.704 6.456-7.111 0.843-1.175 1.648-2.295 2.507-3.282-0.482 0.001-0.962 0.023-1.441 0.063-0.014 0.001-0.026 0.002-0.039 0.002-2.386 0.208-4.713 0.909-6.821 2.057-0.042 0.022-0.083 0.045-0.124 0.068-0.589 0.327-1.16 0.69-1.711 1.088-0.101 0.072-0.2 0.147-0.298 0.222-0.128 0.096-0.256 0.192-0.382 0.291C39.5 23.722 40.128 25.988 41.04 28.433z" fill="#ffffff" data-fill-palette-color="accent"></path><path d="M41.439 50.367c-0.267-1.048-0.481-2.147-0.587-3.257-0.331-3.467 0.346-7.012 3.484-9.38-0.648-1.097-1.252-2.203-1.81-3.306-3.355 2.528-6.248 5.268-8.404 7.769 0.709 1.649 1.679 3.195 2.888 4.571 0.014 0.015 0.026 0.03 0.041 0.044 0.46 0.521 0.957 1.016 1.486 1.483 0.048 0.042 0.095 0.083 0.143 0.125 0.258 0.223 0.52 0.441 0.794 0.649 0.04 0.031 0.081 0.062 0.123 0.094 0.153 0.115 0.309 0.228 0.466 0.339 0.052 0.036 0.104 0.072 0.157 0.107 0.16 0.11 0.321 0.218 0.485 0.324 0.016 0.009 0.032 0.019 0.047 0.028 0.188 0.119 0.379 0.236 0.574 0.348C41.363 50.328 41.402 50.346 41.439 50.367z" fill="#ffffff" data-fill-palette-color="accent"></path></g></g></svg></g></svg></g></svg></g></svg></g><g></g></svg></g></svg></g><g><path d="M190.338 42.137A81.125 81.125 0 0 1 205.182 42.137L203.242 42.137A79.185 79.185 0 0 0 192.278 42.137L190.338 42.137M190.338 205.063A81.125 81.125 0 0 0 205.182 205.063L203.242 205.063A79.185 79.185 0 0 1 192.278 205.063L190.338 205.063" fill="#ffffff" stroke="transparent" data-fill-palette-color="tertiary"></path></g></svg></g><defs></defs></svg><rect width="395.52" height="247.2" fill="none" stroke="none" visibility="hidden"></rect></g></svg></g></svg>